<?xml version="1.0" encoding="UTF-8"?>
<svg id="katman_1" xmlns="http://www.w3.org/2000/svg" version="1.1" xmlns:xlink="http://www.w3.org/1999/xlink" viewBox="0 0 517 175.85">
  <!-- Generator: Adobe Illustrator 29.8.3, SVG Export Plug-In . SVG Version: 2.1.1 Build 3)  -->
  <defs>
    <style>
      .st0 {
        fill: #fff;
      }

      .st1 {
        fill: url(#linear-gradient1);
      }

      .st2 {
        fill: #1f5b84;
      }

      .st3 {
        fill: #1e5d87;
      }

      .st4 {
        fill: url(#linear-gradient);
      }

      .st5 {
        fill: #76a542;
      }
    </style>
    <linearGradient id="linear-gradient" x1="30.68" y1="37.2" x2="163.16" y2="37.2" gradientUnits="userSpaceOnUse">
      <stop offset="0" stop-color="#1e4090"/>
      <stop offset="1" stop-color="#6eb63f"/>
    </linearGradient>
    <linearGradient id="linear-gradient1" x1="1.46" y1="133.31" x2="174.49" y2="133.31" gradientUnits="userSpaceOnUse">
      <stop offset="0" stop-color="#6cbb83"/>
      <stop offset="0" stop-color="#04863e"/>
      <stop offset="1" stop-color="#32569f"/>
    </linearGradient>
  </defs>
  <path class="st3" d="M26.83,54.09s1.25-7.62,12-5.06l44.07,24.96s9.85,6.61,11.46,17.18v56.79l-18.2,2.87-39.84-21.68s-8.78-2.69-9.49-13.97,0-61.09,0-61.09Z"/>
  <path class="st5" d="M100.81,145.1v-51.95s-1.43-13.26,11.82-19.71l40.84-22.93s12.54-6.09,13.97,6.45v61.27h-15.41v-14.43c0-.77-.82-1.27-1.5-.92l-34.83,17.92c-.35.18-.57.54-.56.94l.35,19.52-14.69,3.84Z"/>
  <path class="st0" d="M115.86,104.61l35.83-17.91v-17.2l-28.66,14.33s-7.87,3.74-7.38,11.6c.09,1.48.21,2.95.21,4.44v4.74Z"/>
  <path class="st5" d="M174.21,62.07s32.46,10.38,7.45,54.01c0,0,40.71-42.05-8.78-67.05l1.33,13.04Z"/>
  <path class="st4" d="M30.89,36.73L96.87.45c.12-.06.26-.06.37,0l65.71,36.27c.27.15.27.53,0,.68l-65.86,36.54c-.11.06-.24.07-.36.01l-15.15-7.25c-.14-.07-.23-.21-.22-.37l.49-10.02c.01-.29.33-.46.58-.32l14.3,8.1c.12.07.26.07.38,0l17.89-9.68c.27-.14.27-.53,0-.68l-46.77-26.68c-.12-.07-.26-.07-.38,0l-12.18,6.74c-.09.05-.19.06-.28.04l-9.23-2.24c-.24-.06-.48.12-.48.37l-.24,13.22c0,.3-.33.48-.58.33l-14-8.1c-.26-.15-.26-.53,0-.68Z"/>
  <path class="st0" d="M79.85,20.72l16.29-9.22c.14-.09-3.34,2.22,0,0l47.69,25.34c.27.17.28.56.02.74l-14.6,9.84c-.14.09,0,.18-.14.09l-49.25-26.05c-.28-.17-.29-.58-.01-.75Z"/>
  <polygon class="st3" points="61.63 57.23 52.22 50.78 52.09 38.82 61.19 43.93 61.63 57.23"/>
  <polygon class="st3" points="76.16 65.09 66.76 58.64 66.62 46.68 75.73 51.79 76.16 65.09"/>
  <path class="st1" d="M20.56,109.63s-21.48,29.53,12.33,43.82c6.22,2.63,12.89,4,19.63,4.35,16.79.86,55.44.04,82.39-22.3.17-.14.2-.4.07-.57l-7.33-9.61c-.2-.27-.02-.65.32-.66l46.12-.87c.32,0,.52.34.36.61l-24.54,42.35c-.19.32-.68.25-.75-.12l-2.46-11.33s-76.66,41.2-129.51,5.74c0,0,0,0-.01,0-.39-.28-37.05-27.45,3.05-69.86l.36,18.45Z"/>
  <g>
    <path class="st3" d="M222.33,57.85c0-4.36.77-8.3,2.32-11.84,1.55-3.53,3.7-6.55,6.47-9.03,2.77-2.49,6.05-4.39,9.84-5.73,3.8-1.33,7.94-2,12.45-2s8.65.67,12.45,2c3.79,1.33,7.08,3.24,9.84,5.73,2.77,2.49,4.92,5.5,6.47,9.03,1.55,3.54,2.32,7.48,2.32,11.84s-.77,8.3-2.32,11.84c-1.55,3.54-3.7,6.55-6.47,9.03s-6.05,4.4-9.84,5.73c-3.8,1.33-7.95,2-12.45,2s-8.65-.67-12.45-2c-3.8-1.33-7.08-3.24-9.84-5.73-2.77-2.49-4.92-5.5-6.47-9.03-1.55-3.54-2.32-7.48-2.32-11.84ZM235.51,57.85c0,2.56.42,4.91,1.26,7.03s2.05,3.97,3.62,5.53c1.57,1.56,3.46,2.78,5.65,3.65,2.2.87,4.65,1.31,7.36,1.31s5.17-.44,7.36-1.31c2.2-.87,4.08-2.09,5.65-3.65,1.57-1.56,2.78-3.41,3.62-5.53.84-2.13,1.26-4.47,1.26-7.03s-.42-4.84-1.26-7c-.84-2.15-2.05-4.01-3.62-5.57-1.57-1.56-3.46-2.78-5.65-3.65-2.2-.87-4.65-1.31-7.36-1.31s-5.17.44-7.36,1.31c-2.2.87-4.08,2.09-5.65,3.65-1.57,1.56-2.78,3.42-3.62,5.57s-1.26,4.48-1.26,7ZM244.87,27.1c-.98,0-1.87-.18-2.68-.54-.81-.36-1.52-.84-2.11-1.46-.6-.62-1.07-1.32-1.42-2.11-.35-.8-.53-1.63-.53-2.5,0-.82.18-1.61.53-2.38.35-.77.83-1.44,1.42-2,.6-.56,1.29-1.02,2.07-1.38.79-.36,1.64-.54,2.56-.54,1.9,0,3.55.59,4.96,1.77,1.41,1.18,2.11,2.69,2.11,4.53s-.65,3.41-1.95,4.69c-1.3,1.28-2.96,1.92-4.96,1.92ZM261.79,27.1c-.98,0-1.87-.18-2.68-.54-.81-.36-1.52-.84-2.12-1.46s-1.07-1.32-1.42-2.11-.53-1.63-.53-2.5c0-.82.18-1.61.53-2.38s.83-1.44,1.42-2,1.29-1.02,2.07-1.38c.79-.36,1.64-.54,2.56-.54,1.9,0,3.55.59,4.96,1.77,1.41,1.18,2.12,2.69,2.12,4.53s-.65,3.41-1.95,4.69c-1.3,1.28-2.96,1.92-4.96,1.92Z"/>
    <path class="st3" d="M290.09,73.99l29.2-32.75h-28.15v-10.61h43.52v10.61l-28.63,32.75h29.61v11.07h-45.55v-11.07Z"/>
    <path class="st3" d="M382.02,44.78c-1.25-1.44-2.78-2.54-4.6-3.31-1.82-.77-3.92-1.15-6.3-1.15s-4.6.44-6.63,1.31c-2.03.87-3.8,2.09-5.29,3.65-1.49,1.56-2.66,3.42-3.5,5.57s-1.26,4.48-1.26,7,.42,4.91,1.26,7.03c.84,2.13,1.99,3.97,3.46,5.53,1.46,1.56,3.18,2.78,5.17,3.65,1.98.87,4.11,1.31,6.39,1.31,2.6,0,4.91-.51,6.91-1.54,2.01-1.03,3.66-2.46,4.96-4.31l10.57,7.46c-2.44,3.23-5.53,5.61-9.27,7.15-3.74,1.54-7.59,2.31-11.55,2.31-4.5,0-8.65-.67-12.45-2-3.8-1.33-7.08-3.24-9.84-5.73-2.77-2.49-4.92-5.5-6.47-9.03-1.55-3.54-2.32-7.48-2.32-11.84s.77-8.3,2.32-11.84c1.55-3.53,3.7-6.55,6.47-9.03,2.77-2.49,6.05-4.39,9.84-5.73,3.8-1.33,7.94-2,12.45-2,1.63,0,3.32.14,5.08.42,1.76.28,3.5.73,5.21,1.35,1.71.62,3.35,1.44,4.92,2.46,1.57,1.03,2.98,2.28,4.23,3.77l-9.76,7.53Z"/>
    <path class="st3" d="M419.03,30.63h10.49l25.05,54.43h-14.32l-4.96-11.53h-22.37l-4.8,11.53h-13.99l24.89-54.43ZM423.91,46.47l-7,16.91h14.07l-7.08-16.91Z"/>
    <path class="st3" d="M460.35,30.63h17.25l24.49,37.82h.16V30.63h12.69v54.43h-16.59l-25.14-38.74h-.16v38.74h-12.69V30.63Z"/>
  </g>
  <g>
    <path class="st5" d="M252.29,138.9h-23.85l-5.14,11.66h-4.71l19.57-43.65h4.46l19.57,43.65h-4.77l-5.14-11.66ZM250.64,135.16l-10.27-23.44-10.27,23.44h20.55Z"/>
    <path class="st5" d="M313.74,106.91v43.65h-4.34v-34.92l-16.81,29.37h-2.14l-16.81-29.18v34.73h-4.34v-43.65h3.73l18.59,32.36,18.4-32.36h3.73Z"/>
    <path class="st5" d="M363.44,138.9c0,7.42-5.38,11.66-16.08,11.66h-19.69v-43.65h18.47c9.54,0,15.04,4.12,15.04,11.22,0,4.99-2.63,8.29-6.54,9.91,5.5,1.25,8.81,4.93,8.81,10.85ZM332.19,110.71v15.84h13.64c6.85,0,10.82-2.68,10.82-7.92s-3.98-7.92-10.82-7.92h-13.64ZM358.91,138.52c0-5.67-4.1-8.17-11.62-8.17h-15.1v16.4h15.1c7.52,0,11.62-2.49,11.62-8.23Z"/>
    <path class="st5" d="M400.61,138.9h-23.85l-5.14,11.66h-4.71l19.57-43.65h4.46l19.57,43.65h-4.77l-5.14-11.66ZM398.96,135.16l-10.27-23.44-10.27,23.44h20.55Z"/>
    <path class="st5" d="M417.6,106.91h4.53v39.66h23.97v3.99h-28.49v-43.65Z"/>
    <path class="st5" d="M480.57,138.9h-23.85l-5.14,11.66h-4.71l19.57-43.65h4.46l19.57,43.65h-4.77l-5.14-11.66ZM478.92,135.16l-10.27-23.44-10.27,23.44h20.55Z"/>
    <path class="st5" d="M491.2,144.7l2.69-3.12c2.32,3.49,5.44,5.36,9.23,5.36,5.26,0,7.95-3.18,7.95-9.6v-26.44h-15.65v-3.99h20.12v30.24c0,9.23-4.28,13.78-12.47,13.78-4.83,0-9.23-2.24-11.86-6.23Z"/>
  </g>
  <path class="st0" d="M42.15,69.5l25.72,13.31c1.63.84,3.31,1.6,4.98,2.36,1.97.9,5.28,3.1,5.4,7.8v42.46l-31.26-17.2s-4.84-2.15-4.84-8.6v-40.13Z"/>
  <path class="st2" d="M174.07,123.79"/>
</svg>